<?xml version="1.0" standalone="no"?><!DOCTYPE svg PUBLIC "-//W3C//DTD SVG 1.1//EN" "http://www.w3.org/Graphics/SVG/1.1/DTD/svg11.dtd"><svg t="1659087152787" class="icon" viewBox="0 0 1024 1024" version="1.1" xmlns="http://www.w3.org/2000/svg" p-id="5121" xmlns:xlink="http://www.w3.org/1999/xlink" width="200" height="200"><defs><style type="text/css">@font-face { font-family: feedback-iconfont; src: url("//at.alicdn.com/t/font_1031158_u69w8yhxdu.woff2?t=1630033759944") format("woff2"), url("//at.alicdn.com/t/font_1031158_u69w8yhxdu.woff?t=1630033759944") format("woff"), url("//at.alicdn.com/t/font_1031158_u69w8yhxdu.ttf?t=1630033759944") format("truetype"); }
</style></defs><path d="M672 856v56c0 20.898-13.36 38.668-32 45.258V976c0 26.51-21.49 48-48 48h-160c-26.51 0-48-21.49-48-48v-18.742c-18.64-6.59-32-24.36-32-45.258v-56c0-13.254 10.746-24 24-24h272c13.254 0 24 10.746 24 24zM384 352c0-70.58 57.42-128 128-128 17.674 0 32-14.328 32-32s-14.326-32-32-32c-105.87 0-192 86.13-192 192 0 17.672 14.328 32 32 32s32-14.328 32-32z m128-256c141.468 0 256 114.508 256 256 0 155.204-74.766 120.954-161.96 320h-188.08C330.636 472.66 256 507.738 256 352c0-141.47 114.508-256 256-256m0-96C317.61 0 160 157.606 160 352c0 203.462 103.394 183.082 181.032 385.348 7.1 18.498 24.94 30.652 44.752 30.652h252.43c19.812 0 37.652-12.156 44.752-30.652C760.606 535.082 864 555.462 864 352 864 157.606 706.39 0 512 0z" fill="" p-id="5122"></path></svg>